<svg width="287" height="357" viewBox="0 0 287 357" fill="none" xmlns="http://www.w3.org/2000/svg">
<path d="M76.6055 158.514H101.02C124.945 158.514 142.605 154.526 153.998 146.551C165.391 138.576 171.088 126.043 171.088 108.953C171.088 92.026 165.229 79.9818 153.51 72.8203C141.954 65.6589 123.969 62.0781 99.5547 62.0781H76.6055V158.514ZM76.6055 220.037V357H0.921875V0.0664062H104.926C153.428 0.0664062 189.317 8.93685 212.592 26.6777C235.867 44.2559 247.504 71.0299 247.504 107C247.504 127.996 241.726 146.714 230.17 163.152C218.614 179.428 202.257 192.205 181.098 201.482C234.809 281.723 269.802 333.562 286.078 357H202.094L116.889 220.037H76.6055Z" fill="#008FE7"/>
</svg>
