<svg width="238" height="298" viewBox="0 0 238 298" fill="none" xmlns="http://www.w3.org/2000/svg">
<path d="M63.1678 132.286H83.5445C103.514 132.286 118.253 128.957 127.762 122.298C137.271 115.64 142.026 105.176 142.026 90.9083C142.026 76.7761 137.135 66.7205 127.354 60.7415C117.709 54.7624 102.699 51.7729 82.3219 51.7729H63.1678V132.286ZM63.1678 183.651V298H0V0H86.8048C127.287 0 157.24 7.40584 176.666 22.2175C196.092 36.8933 205.805 59.2467 205.805 89.2777C205.805 106.807 200.982 122.434 191.337 136.159C181.692 149.747 168.04 160.415 150.38 168.16C195.209 235.152 224.416 278.432 238 298H167.904L96.7894 183.651H63.1678Z" fill="#039A43"/>
</svg>
