<svg width="825" height="845" viewBox="0 0 825 845" fill="none" xmlns="http://www.w3.org/2000/svg">
<path fill-rule="evenodd" clip-rule="evenodd" d="M0 241.63C0.0119629 224.684 2.36694 207.685 7.73608 190.621C35.0671 103.758 122.14 57.7596 205.426 13.7621C214.123 9.1676 222.779 4.59509 231.321 0H825V665.879C809.56 678.835 793.75 691.432 778.058 703.935L775.729 705.791C772.795 708.128 769.86 710.472 766.921 712.818C693.043 771.792 617.166 832.362 523.432 842.394C419.822 853.483 309.977 829.498 228.622 764.344C166.909 714.921 141.708 639.344 116.421 563.508C109.086 541.511 101.744 519.492 93.502 498.084C83.2349 471.416 70.2129 444.758 57.1733 418.064C28.6497 359.672 0.0422363 301.107 0 241.892C0 241.805 0 241.718 0 241.63Z" fill="white"/>
</svg>
