<svg width="966" height="1024" viewBox="0 0 966 1024" fill="none" xmlns="http://www.w3.org/2000/svg">
<path fill-rule="evenodd" clip-rule="evenodd" d="M523.432 78.5518C647.735 51.8408 792.201 -49.1852 892.242 29.3258C993.331 108.658 924.377 274.952 936.742 402.911C945.79 496.532 984.693 588.376 954.887 677.579C925.218 766.373 848.92 826.467 775.729 884.791C699.052 945.893 620.895 1010.96 523.432 1021.39C419.822 1032.48 309.977 1008.5 228.622 943.344C149.009 879.586 130.161 772.3 93.5019 677.084C54.3154 575.302 -24.9995 473.661 7.73608 369.621C40.5035 265.481 159.142 220.078 254.174 166.44C338.465 118.864 428.814 98.8845 523.432 78.5518Z" fill="white"/>
</svg>
