<svg width="789" height="800" viewBox="0 0 789 800" fill="none" xmlns="http://www.w3.org/2000/svg">
<path fill-rule="evenodd" clip-rule="evenodd" d="M789 736.06C729.39 773.319 665.379 803.431 587.645 799.684C501.736 795.544 447.425 748.191 392.142 699.99C363.666 675.162 334.932 650.109 301.489 630.622C271.914 613.389 238.706 598.894 205.787 584.526C142.625 556.957 80.5203 529.85 47.157 484.744C-7.84764 410.38 -9.08691 324.35 14.7293 242.936C41.1138 152.742 73.0879 50.0653 188.826 0.453369C189.181 0.301392 189.536 0.150269 189.891 0H775.168C779.801 0.19986 784.413 0.43277 789 0.703918V736.06Z" fill="white"/>
</svg>
