<svg width="424" height="484" viewBox="0 0 424 484" fill="none" xmlns="http://www.w3.org/2000/svg">
<g clip-path="url(#clip0)">
<path d="M413.421 304.567L349.135 231.751H373.782C381.033 231.751 387.446 227.727 390.504 221.241C393.561 214.772 392.556 207.352 387.864 201.889L324.994 128.751H348.241C355.564 128.751 362.163 124.445 365.027 117.799C367.86 111.257 366.524 103.644 361.615 98.4219L272.883 3.88718C268.03 -1.30305 258.977 -1.30305 254.117 3.88718L165.376 98.4219C160.468 103.644 159.14 111.257 161.964 117.799C164.829 124.445 171.436 128.751 178.758 128.751H202.006L139.127 201.905C134.452 207.36 133.446 214.772 136.496 221.249C139.554 227.727 145.959 231.751 153.217 231.751H177.865L113.579 304.567C108.75 310.031 107.656 317.514 110.714 324.088C113.731 330.566 120.37 334.751 127.62 334.751H237.75V354.425L213.376 393.372C209.095 401.934 215.323 412.009 224.891 412.009H302.109C311.676 412.009 317.905 401.934 313.624 393.372L289.25 354.425V334.751H399.379C406.63 334.751 413.268 330.566 416.286 324.088C419.344 317.514 418.249 310.031 413.421 304.567Z" fill="#A8A8A8"/>
</g>
<g clip-path="url(#clip1)">
<path d="M304.421 341.567L240.135 268.751H264.782C272.033 268.751 278.446 264.727 281.504 258.241C284.561 251.772 283.556 244.352 278.864 238.889L215.994 165.751H239.241C246.564 165.751 253.163 161.445 256.027 154.799C258.86 148.257 257.524 140.644 252.615 135.422L163.883 40.8872C159.03 35.6969 149.977 35.6969 145.117 40.8872L56.3762 135.422C51.4676 140.644 50.1399 148.257 52.9644 154.799C55.8291 161.445 62.4355 165.751 69.7582 165.751H93.0056L30.1273 238.905C25.4521 244.36 24.4462 251.772 27.496 258.249C30.5538 264.727 36.9591 268.751 44.2174 268.751H68.865L4.57851 341.567C-0.249617 347.031 -1.34399 354.514 1.71382 361.088C4.7314 367.566 11.3701 371.751 18.6203 371.751H128.75V391.425L104.376 430.372C100.095 438.934 106.323 449.009 115.891 449.009H193.109C202.676 449.009 208.905 438.934 204.624 430.372L180.25 391.425V371.751H290.379C297.63 371.751 304.268 367.566 307.286 361.088C310.344 354.514 309.249 347.031 304.421 341.567Z" fill="#E5E5E5"/>
</g>
<g clip-path="url(#clip2)">
<path d="M419.421 376.567L355.135 303.751H379.782C387.033 303.751 393.446 299.727 396.504 293.241C399.561 286.772 398.556 279.352 393.864 273.889L330.994 200.751H354.241C361.564 200.751 368.163 196.445 371.027 189.799C373.86 183.257 372.524 175.644 367.615 170.422L278.883 75.8872C274.03 70.6969 264.977 70.6969 260.117 75.8872L171.376 170.422C166.468 175.644 165.14 183.257 167.964 189.799C170.829 196.445 177.436 200.751 184.758 200.751H208.006L145.127 273.905C140.452 279.36 139.446 286.772 142.496 293.249C145.554 299.727 151.959 303.751 159.217 303.751H183.865L119.579 376.567C114.75 382.031 113.656 389.514 116.714 396.088C119.731 402.566 126.37 406.751 133.62 406.751H243.75V426.425L219.376 465.372C215.095 473.934 221.323 484.009 230.891 484.009H308.109C317.676 484.009 323.905 473.934 319.624 465.372L295.25 426.425V406.751H405.379C412.63 406.751 419.268 402.566 422.286 396.088C425.344 389.514 424.249 382.031 419.421 376.567Z" fill="white"/>
</g>
<defs>
<clipPath id="clip0">
<rect width="309" height="412" fill="white" transform="translate(109)"/>
</clipPath>
<clipPath id="clip1">
<rect width="309" height="412" fill="white" transform="translate(0 37)"/>
</clipPath>
<clipPath id="clip2">
<rect width="309" height="412" fill="white" transform="translate(115 72)"/>
</clipPath>
</defs>
</svg>
