<svg width="24" height="27" viewBox="0 0 24 27" fill="none" xmlns="http://www.w3.org/2000/svg">
<g clip-path="url(#clip0)">
<path d="M22.7481 17.0026L19.2113 12.9376H20.5673C20.9662 12.9376 21.319 12.713 21.4873 12.3509C21.6555 11.9897 21.6001 11.5756 21.342 11.2705L17.8832 7.1876H19.1621C19.565 7.1876 19.928 6.94726 20.0856 6.57621C20.2415 6.21099 20.168 5.78603 19.8979 5.49449L15.0162 0.217066C14.7492 -0.0726807 14.2512 -0.0726807 13.9838 0.217066L9.1016 5.49449C8.83155 5.78603 8.7585 6.21099 8.91389 6.57621C9.0715 6.94726 9.43496 7.1876 9.83782 7.1876H11.1168L7.65749 11.2714C7.40027 11.576 7.34493 11.9897 7.51272 12.3514C7.68095 12.713 8.03335 12.9376 8.43267 12.9376H9.78868L6.25189 17.0026C5.98626 17.3076 5.92605 17.7254 6.09428 18.0924C6.2603 18.454 6.62553 18.6876 7.02441 18.6876H13.0833V19.7859L11.7424 21.9602C11.5068 22.4381 11.8495 23.0006 12.3759 23.0006H16.6241C17.1505 23.0006 17.4931 22.4381 17.2576 21.9602L15.9167 19.7859V18.6876H21.9756C22.3744 18.6876 22.7397 18.454 22.9057 18.0924C23.0739 17.7254 23.0137 17.3076 22.7481 17.0026Z" fill="#2D76A8"/>
</g>
<g clip-path="url(#clip1)">
<path d="M16.7481 19.0026L13.2113 14.9376H14.5673C14.9662 14.9376 15.319 14.713 15.4873 14.3509C15.6555 13.9897 15.6001 13.5756 15.342 13.2705L11.8832 9.18759H13.1621C13.565 9.18759 13.928 8.94726 14.0856 8.57621C14.2415 8.21099 14.168 7.78603 13.8979 7.49449L9.01618 2.21707C8.74923 1.92732 8.25118 1.92732 7.98379 2.21707L3.1016 7.49449C2.83155 7.78603 2.7585 8.21099 2.91389 8.57621C3.0715 8.94726 3.43496 9.18759 3.83782 9.18759H5.11681L1.65749 13.2714C1.40027 13.576 1.34493 13.9897 1.51272 14.3514C1.68095 14.713 2.03335 14.9376 2.43267 14.9376H3.78868L0.251887 19.0026C-0.0137379 19.3076 -0.0739463 19.7254 0.0942829 20.0924C0.260299 20.454 0.625533 20.6876 1.02441 20.6876H7.08332V21.7859L5.74236 23.9602C5.50683 24.4381 5.84949 25.0005 6.37587 25.0005H10.6241C11.1505 25.0005 11.4931 24.4381 11.2576 23.9602L9.91665 21.7859V20.6876H15.9756C16.3744 20.6876 16.7397 20.454 16.9057 20.0924C17.0739 19.7254 17.0137 19.3076 16.7481 19.0026Z" fill="#5BB0E9"/>
</g>
<g clip-path="url(#clip2)">
<path d="M23.7481 21.0026L20.2113 16.9376H21.5673C21.9662 16.9376 22.319 16.713 22.4873 16.3509C22.6555 15.9897 22.6001 15.5756 22.342 15.2705L18.8832 11.1876H20.1621C20.565 11.1876 20.928 10.9473 21.0856 10.5762C21.2415 10.211 21.168 9.78603 20.8979 9.49449L16.0162 4.21707C15.7492 3.92732 15.2512 3.92732 14.9838 4.21707L10.1016 9.49449C9.83155 9.78603 9.7585 10.211 9.91389 10.5762C10.0715 10.9473 10.435 11.1876 10.8378 11.1876H12.1168L8.65749 15.2714C8.40027 15.576 8.34493 15.9897 8.51272 16.3514C8.68095 16.713 9.03335 16.9376 9.43267 16.9376H10.7887L7.25189 21.0026C6.98626 21.3076 6.92605 21.7254 7.09428 22.0924C7.2603 22.454 7.62553 22.6876 8.02441 22.6876H14.0833V23.7859L12.7424 25.9602C12.5068 26.4381 12.8495 27.0005 13.3759 27.0005H17.6241C18.1505 27.0005 18.4931 26.4381 18.2576 25.9602L16.9167 23.7859V22.6876H22.9756C23.3744 22.6876 23.7397 22.454 23.9057 22.0924C24.0739 21.7254 24.0137 21.3076 23.7481 21.0026Z" fill="#008FE7"/>
</g>
<defs>
<clipPath id="clip0">
<rect width="17" height="23" fill="white" transform="translate(6)"/>
</clipPath>
<clipPath id="clip1">
<rect width="17" height="23" fill="white" transform="translate(0 2)"/>
</clipPath>
<clipPath id="clip2">
<rect width="17" height="23" fill="white" transform="translate(7 4)"/>
</clipPath>
</defs>
</svg>
