<svg width="463" height="412" viewBox="0 0 463 412" fill="none" xmlns="http://www.w3.org/2000/svg">
<path d="M270.083 360.5H12.8611C5.75535 360.5 0 366.262 0 373.375V399.125C0 406.238 5.75535 412 12.8611 412H270.083C277.189 412 282.944 406.238 282.944 399.125V373.375C282.944 366.262 277.189 360.5 270.083 360.5ZM437.278 103V64.375C437.278 57.2616 431.522 51.5 424.417 51.5C417.311 51.5 411.556 57.2616 411.556 64.375V103H385.833V64.375C385.833 57.2616 380.078 51.5 372.972 51.5C365.866 51.5 360.111 57.2616 360.111 64.375V103H347.25C340.144 103 334.389 108.762 334.389 115.875V141.625C334.389 170.401 353.375 194.485 379.403 202.725V298.072C379.403 309.298 371.766 319.735 360.706 321.561C346.623 323.887 334.389 313.015 334.389 299.344V276.812C334.389 237.705 302.718 206 263.653 206H257.222V51.5C257.222 23.0543 234.193 0 205.778 0H77.1667C48.7516 0 25.7222 23.0543 25.7222 51.5V334.75H257.222V244.625H263.653C281.409 244.625 295.806 259.037 295.806 276.812V296.616C295.806 328.538 319.052 357.096 350.795 360.194C387.208 363.759 417.986 335.08 417.986 299.344V202.725C444.014 194.485 463 170.401 463 141.625V115.875C463 108.762 457.245 103 450.139 103H437.278ZM209.065 141.432L133.748 253.283C131.979 255.963 128.756 257.5 125.396 257.5C119.231 257.5 114.568 252.447 116.015 247.103L134.519 180.25H86.8125C80.9848 180.25 76.4834 175.752 77.2551 170.682L90.1162 84.5807C90.7512 80.3883 94.8346 77.25 99.6736 77.25H154.333C160.667 77.25 165.281 82.5127 163.658 87.8799L154.333 128.75H200.714C208.141 128.75 212.779 135.815 209.065 141.432Z" fill="white"/>
</svg>
