<svg width="31" height="27" viewBox="0 0 31 27" fill="none" xmlns="http://www.w3.org/2000/svg">
<path d="M18.0833 23.625H0.861111C0.385347 23.625 0 24.0026 0 24.4688V26.1562C0 26.6224 0.385347 27 0.861111 27H18.0833C18.5591 27 18.9444 26.6224 18.9444 26.1562V24.4688C18.9444 24.0026 18.5591 23.625 18.0833 23.625ZM29.2778 6.75V4.21875C29.2778 3.75258 28.8924 3.375 28.4167 3.375C27.9409 3.375 27.5556 3.75258 27.5556 4.21875V6.75H25.8333V4.21875C25.8333 3.75258 25.448 3.375 24.9722 3.375C24.4965 3.375 24.1111 3.75258 24.1111 4.21875V6.75H23.25C22.7742 6.75 22.3889 7.12758 22.3889 7.59375V9.28125C22.3889 11.167 23.6601 12.7454 25.4028 13.2854V19.5339C25.4028 20.2695 24.8915 20.9535 24.1509 21.0732C23.208 21.2256 22.3889 20.5131 22.3889 19.6172V18.1406C22.3889 15.5777 20.2684 13.5 17.6528 13.5H17.2222V3.375C17.2222 1.51084 15.6803 0 13.7778 0H5.16667C3.26415 0 1.72222 1.51084 1.72222 3.375V21.9375H17.2222V16.0312H17.6528C18.8417 16.0312 19.8056 16.9757 19.8056 18.1406V19.4384C19.8056 21.5304 21.362 23.4019 23.4873 23.605C25.9254 23.8386 27.9861 21.9591 27.9861 19.6172V13.2854C29.7288 12.7454 31 11.167 31 9.28125V7.59375C31 7.12758 30.6147 6.75 30.1389 6.75H29.2778ZM13.9979 9.26859L8.95502 16.5987C8.83661 16.7743 8.6208 16.875 8.39583 16.875C7.98304 16.875 7.67089 16.5438 7.76776 16.1937L9.00668 11.8125H5.8125C5.42231 11.8125 5.12092 11.5177 5.17259 11.1855L6.0337 5.54291C6.07622 5.26816 6.34962 5.0625 6.67361 5.0625H10.3333C10.7574 5.0625 11.0664 5.40738 10.9576 5.75912L10.3333 8.4375H13.4387C13.936 8.4375 14.2465 8.90051 13.9979 9.26859Z" fill="#CECECE"/>
</svg>
