<svg width="27" height="27" viewBox="0 0 27 27" fill="none" xmlns="http://www.w3.org/2000/svg">
<path d="M21.8431 9.36826C21.8969 9.80121 22.2518 10.125 22.6737 10.125H23.5237C24.0253 10.125 24.4245 9.67307 24.3675 9.15732C24.1386 7.09488 23.1863 5.22703 21.7239 4.03365C20.8079 3.28641 20.2041 2.09566 20.0375 0.756211C19.9842 0.323789 19.6288 0 19.2074 0H18.3574C17.8559 0 17.4561 0.451934 17.5136 0.967676C17.7425 3.03012 18.6949 4.89797 20.1572 6.09135C21.0727 6.83859 21.677 8.02934 21.8431 9.36826ZM16.1478 9.36826C16.2016 9.80121 16.5565 10.125 16.9784 10.125H17.8284C18.3299 10.125 18.7291 9.67307 18.6722 9.15732C18.4433 7.09488 17.4909 5.22703 16.0286 4.03365C15.1126 3.28641 14.5088 2.09566 14.3422 0.756211C14.2889 0.323789 13.9335 0 13.5121 0H12.6621C12.1605 0 11.7608 0.451934 11.8183 0.967676C12.0472 3.03012 12.9995 4.89797 14.4619 6.09135C15.3773 6.83859 15.9817 8.02934 16.1478 9.36826ZM25.3125 13.5H13.5L7.65018 9.1125C7.06599 8.67432 6.35543 8.43746 5.62518 8.4375H3.375C1.51084 8.4375 0 9.94834 0 11.8125V23.625C0 25.4892 1.51084 27 3.375 27H23.625C25.4892 27 27 25.4892 27 23.625V15.1875C27 14.2557 26.2443 13.5 25.3125 13.5ZM6.75 23.2031C6.75 23.4362 6.56121 23.625 6.32812 23.625H5.48438C5.25129 23.625 5.0625 23.4362 5.0625 23.2031V17.2969C5.0625 17.0638 5.25129 16.875 5.48438 16.875H6.32812C6.56121 16.875 6.75 17.0638 6.75 17.2969V23.2031ZM11.8125 23.2031C11.8125 23.4362 11.6237 23.625 11.3906 23.625H10.5469C10.3138 23.625 10.125 23.4362 10.125 23.2031V17.2969C10.125 17.0638 10.3138 16.875 10.5469 16.875H11.3906C11.6237 16.875 11.8125 17.0638 11.8125 17.2969V23.2031ZM16.875 23.2031C16.875 23.4362 16.6862 23.625 16.4531 23.625H15.6094C15.3763 23.625 15.1875 23.4362 15.1875 23.2031V17.2969C15.1875 17.0638 15.3763 16.875 15.6094 16.875H16.4531C16.6862 16.875 16.875 17.0638 16.875 17.2969V23.2031ZM21.9375 23.2031C21.9375 23.4362 21.7487 23.625 21.5156 23.625H20.6719C20.4388 23.625 20.25 23.4362 20.25 23.2031V17.2969C20.25 17.0638 20.4388 16.875 20.6719 16.875H21.5156C21.7487 16.875 21.9375 17.0638 21.9375 17.2969V23.2031ZM3.375 6.75C5.23916 6.75 6.75 5.23916 6.75 3.375C6.75 1.51084 5.23916 0 3.375 0C1.51084 0 0 1.51084 0 3.375C0 5.23916 1.51084 6.75 3.375 6.75Z" fill="#CECECE"/>
</svg>
