<svg width="412" height="412" viewBox="0 0 412 412" fill="none" xmlns="http://www.w3.org/2000/svg">
<path d="M333.31 142.953C334.13 149.559 339.546 154.5 345.983 154.5H358.955C366.608 154.5 372.699 147.604 371.83 139.734C368.338 108.263 353.805 79.7606 331.491 61.5505C317.514 50.1481 308.3 31.9783 305.757 11.5392C304.944 4.94078 299.521 0 293.091 0H280.12C272.467 0 266.368 6.89617 267.245 14.766C270.737 46.2373 285.27 74.7394 307.584 92.9495C321.553 104.352 330.775 122.522 333.31 142.953ZM246.403 142.953C247.224 149.559 252.64 154.5 259.077 154.5H272.049C279.701 154.5 285.793 147.604 284.924 139.734C281.431 108.263 266.899 79.7606 244.585 61.5505C230.607 50.1481 221.394 31.9783 218.851 11.5392C218.038 4.94078 212.615 0 206.185 0H193.214C185.561 0 179.461 6.89617 180.339 14.766C183.831 46.2373 198.364 74.7394 220.677 92.9495C234.647 104.352 243.869 122.522 246.403 142.953ZM386.25 206H206L116.736 139.05C107.822 132.364 96.9792 128.749 85.836 128.75H51.5C23.0543 128.75 0 151.804 0 180.25V360.5C0 388.946 23.0543 412 51.5 412H360.5C388.946 412 412 388.946 412 360.5V231.75C412 217.531 400.469 206 386.25 206ZM103 354.062C103 357.619 100.119 360.5 96.5625 360.5H83.6875C80.1308 360.5 77.25 357.619 77.25 354.062V263.938C77.25 260.381 80.1308 257.5 83.6875 257.5H96.5625C100.119 257.5 103 260.381 103 263.938V354.062ZM180.25 354.062C180.25 357.619 177.369 360.5 173.812 360.5H160.938C157.381 360.5 154.5 357.619 154.5 354.062V263.938C154.5 260.381 157.381 257.5 160.938 257.5H173.812C177.369 257.5 180.25 260.381 180.25 263.938V354.062ZM257.5 354.062C257.5 357.619 254.619 360.5 251.062 360.5H238.188C234.631 360.5 231.75 357.619 231.75 354.062V263.938C231.75 260.381 234.631 257.5 238.188 257.5H251.062C254.619 257.5 257.5 260.381 257.5 263.938V354.062ZM334.75 354.062C334.75 357.619 331.869 360.5 328.312 360.5H315.438C311.881 360.5 309 357.619 309 354.062V263.938C309 260.381 311.881 257.5 315.438 257.5H328.312C331.869 257.5 334.75 260.381 334.75 263.938V354.062ZM51.5 103C79.9457 103 103 79.9457 103 51.5C103 23.0543 79.9457 0 51.5 0C23.0543 0 0 23.0543 0 51.5C0 79.9457 23.0543 103 51.5 103Z" fill="white"/>
</svg>
